<mxfile host="app.diagrams.net" modified="2022-03-04T12:24:06.229Z" agent="5.0 (X11; Linux x86_64) AppleWebKit/537.36 (KHTML, like Gecko) Chrome/98.0.4758.102 Safari/537.36" etag="2j8MwiDKCUZYDYGSwf8Y" version="16.6.6" type="github">
  <diagram id="EQpLlKbdc8OgnCQCFroB" name="第 1 页">
    <mxGraphModel dx="1038" dy="589" grid="1" gridSize="10" guides="1" tooltips="1" connect="1" arrows="1" fold="1" page="1" pageScale="1" pageWidth="827" pageHeight="1169" math="0" shadow="0">
      <root>
        <mxCell id="0" />
        <mxCell id="1" parent="0" />
        <mxCell id="3hhu8YaVUrRk9R4BdWLA-10" value="" style="edgeStyle=orthogonalEdgeStyle;rounded=0;orthogonalLoop=1;jettySize=auto;html=1;" edge="1" parent="1" source="3hhu8YaVUrRk9R4BdWLA-1" target="3hhu8YaVUrRk9R4BdWLA-9">
          <mxGeometry relative="1" as="geometry" />
        </mxCell>
        <mxCell id="3hhu8YaVUrRk9R4BdWLA-11" style="rounded=0;orthogonalLoop=1;jettySize=auto;html=1;exitX=1;exitY=0;exitDx=0;exitDy=0;strokeColor=default;entryX=0;entryY=0.5;entryDx=0;entryDy=0;" edge="1" parent="1" source="3hhu8YaVUrRk9R4BdWLA-1" target="3hhu8YaVUrRk9R4BdWLA-13">
          <mxGeometry relative="1" as="geometry">
            <mxPoint x="320" y="570" as="targetPoint" />
          </mxGeometry>
        </mxCell>
        <mxCell id="3hhu8YaVUrRk9R4BdWLA-15" style="edgeStyle=none;rounded=0;orthogonalLoop=1;jettySize=auto;html=1;exitX=1;exitY=1;exitDx=0;exitDy=0;entryX=0.007;entryY=0.623;entryDx=0;entryDy=0;entryPerimeter=0;strokeColor=default;" edge="1" parent="1" source="3hhu8YaVUrRk9R4BdWLA-1" target="3hhu8YaVUrRk9R4BdWLA-14">
          <mxGeometry relative="1" as="geometry" />
        </mxCell>
        <mxCell id="3hhu8YaVUrRk9R4BdWLA-1" value="NeRF" style="rounded=1;whiteSpace=wrap;html=1;" vertex="1" parent="1">
          <mxGeometry x="130" y="620" width="120" height="60" as="geometry" />
        </mxCell>
        <mxCell id="3hhu8YaVUrRk9R4BdWLA-9" value="sparse" style="whiteSpace=wrap;html=1;rounded=1;" vertex="1" parent="1">
          <mxGeometry x="330" y="620" width="120" height="60" as="geometry" />
        </mxCell>
        <mxCell id="3hhu8YaVUrRk9R4BdWLA-13" value="speed" style="whiteSpace=wrap;html=1;rounded=1;" vertex="1" parent="1">
          <mxGeometry x="330" y="525" width="120" height="60" as="geometry" />
        </mxCell>
        <mxCell id="3hhu8YaVUrRk9R4BdWLA-14" value="deformable" style="whiteSpace=wrap;html=1;rounded=1;" vertex="1" parent="1">
          <mxGeometry x="330" y="720" width="120" height="60" as="geometry" />
        </mxCell>
      </root>
    </mxGraphModel>
  </diagram>
</mxfile>
